<?xml version="1.0" encoding="UTF-8" standalone="no"?>
<svg
   xml:space="preserve"
   width="2725.3115"
   height="903.71997"
   style="clip-rule:evenodd;fill-rule:evenodd;stroke-linejoin:round;stroke-miterlimit:2"
   viewBox="663.38 37.57 2725.3114 903.72"
   version="1.1"
   id="svg19"
   sodipodi:docname="neovim_helix.svg"
   inkscape:version="1.1.2 (b8e25be833, 2022-02-05)"
   xmlns:inkscape="http://www.inkscape.org/namespaces/inkscape"
   xmlns:sodipodi="http://sodipodi.sourceforge.net/DTD/sodipodi-0.dtd"
   xmlns="http://www.w3.org/2000/svg"
   xmlns:svg="http://www.w3.org/2000/svg">
   <style type="text/css">
     #text3964-0{fill:#2a292f;}
     @media(prefers-color-scheme: dark){#text3964-0{fill:#f0f6fc;}}
   </style>
   <sodipodi:namedview
     id="namedview21"
     pagecolor="#ffffff"
     bordercolor="#666666"
     borderopacity="1.0"
     inkscape:pageshadow="2"
     inkscape:pageopacity="0.0"
     inkscape:pagecheckerboard="0"
     showgrid="false"
     inkscape:zoom="0.54470807"
     inkscape:cx="1304.3684"
     inkscape:cy="731.58453"
     inkscape:window-width="2560"
     inkscape:window-height="1571"
     inkscape:window-x="-9"
     inkscape:window-y="-9"
     inkscape:window-maximized="1"
     inkscape:current-layer="text3964-0"
     fit-margin-top="0"
     fit-margin-left="0"
     fit-margin-right="0"
     fit-margin-bottom="0" /><defs
     id="defs5"><path
       id="c"
       d="M 713.026,-304.325 H 4328.26 V 1560.429 H 713.026 Z" /><path
       id="b"
       d="M 972.073,151.159 H 3113.038 V 836.022 H 972.073 Z" /><path
       id="a"
       d="m 661.302,48.088 h 769.156 V 876.556 H 661.302 Z" /><path
       id="c-6"
       d="M 713.026,-304.325 H 4328.26 V 1560.429 H 713.026 Z" /><path
       id="b-3"
       d="M 972.073,151.159 H 3113.038 V 836.022 H 972.073 Z" /><path
       id="a-3"
       d="m 661.302,48.088 h 769.156 V 876.556 H 661.302 Z" /><path
       id="c-69"
       d="M 713.026,-304.325 H 4328.26 V 1560.429 H 713.026 Z" /><path
       id="b-5"
       d="M 972.073,151.159 H 3113.038 V 836.022 H 972.073 Z" /><path
       id="a-1"
       d="m 661.302,48.088 h 769.156 V 876.556 H 661.302 Z" /></defs><g
     aria-label="Neovim"
     transform="scale(1.0009549,0.99904601)"
     id="text3964-0"
     style="font-size:528.666px;font-family:'Droid Sans';-inkscape-font-specification:'Droid Sans';letter-spacing:3.5px;stroke-width:3.43779"><path
       d="m 1791.5119,731.20844 h -101.4481 l -148.4292,-285.5003 h -2.3233 q 1.5489,19.8766 2.5814,39.49506 1.0326,16.77895 1.5488,35.36487 0.7745,18.32778 0.7745,33.04163 v 177.59874 h -71.5042 V 353.81111 h 100.9319 l 148.171,282.66079 h 1.5488 q -0.7744,-19.61847 -1.8069,-38.72066 -0.2582,-8.2604 -0.7745,-16.77895 -0.2581,-8.77668 -0.5162,-17.29522 -0.2582,-8.77669 -0.5163,-16.77895 0,-8.00227 0,-14.45572 V 353.81111 h 71.7623 z"
       id="path3200" /><path
       d="m 2000.7476,493.20547 q -20.9091,0 -34.8486,14.71385 -13.6812,14.71385 -15.7464,46.20665 h 100.4156 q -0.2581,-13.16502 -3.3558,-24.26494 -3.0976,-11.09992 -9.2929,-19.10219 -6.1953,-8.26041 -15.4883,-12.90689 -9.293,-4.64648 -21.6836,-4.64648 z m 10.0674,243.16572 q -30.9765,0 -57.0484,-9.03482 -26.0719,-9.03482 -44.916,-27.10446 -18.844,-18.32778 -29.4277,-45.94851 -10.3255,-27.87887 -10.3255,-65.30884 0,-37.94624 9.5511,-66.34139 9.5511,-28.39515 26.5882,-47.2392 17.2952,-19.10219 41.302,-28.65328 24.265,-9.5511 53.6927,-9.5511 28.6532,0 51.6275,8.77668 23.2324,8.51855 39.2369,25.2975 16.2627,16.77895 24.7813,41.30203 8.7766,24.26494 8.7766,55.75774 v 38.20438 h -176.0499 q 0.5163,16.52082 5.1628,29.94398 4.9046,13.16502 13.4231,22.45798 8.7767,9.03482 20.9092,13.93943 12.3906,4.90462 28.137,4.90462 13.165,0 24.7812,-1.29069 11.8744,-1.54882 22.9743,-4.38834 11.0999,-2.83951 21.9417,-6.96972 10.8418,-4.38834 22.1998,-10.06737 v 60.9205 q -10.3255,5.42089 -20.9091,9.29296 -10.3255,3.61393 -21.9417,6.1953 -11.6162,2.58138 -25.0394,3.61393 -13.4232,1.29069 -29.4277,1.29069 z"
       id="path3202" /><path
       d="m 2260.3202,586.39318 q 0,43.109 12.1325,65.0507 12.1325,21.68357 39.4951,21.68357 27.1044,0 39.2369,-21.9417 12.1325,-21.94171 12.1325,-64.79257 0,-43.10899 -12.1325,-64.27628 -12.1325,-21.42543 -39.7532,-21.42543 -27.1045,0 -39.2369,21.42543 -11.8744,21.16729 -11.8744,64.27628 z m 183.2778,0 q 0,36.13928 -9.2929,64.01815 -9.0349,27.87888 -26.3301,46.98107 -17.0371,19.10219 -41.8183,29.16956 -24.5231,9.80923 -55.2415,9.80923 -28.6533,0 -52.6601,-9.80923 -24.0068,-10.06737 -41.5601,-29.16956 -17.2953,-19.10219 -27.1045,-46.98107 -9.8092,-27.87887 -9.8092,-64.01815 0,-35.88114 9.0348,-63.76001 9.293,-27.87887 26.33,-46.72292 17.2953,-19.10219 41.8184,-28.91143 24.523,-9.80923 55.4996,-9.80923 28.6532,0 52.66,9.80923 24.0069,9.80924 41.3021,28.91143 17.5533,18.84405 27.3626,46.72292 9.8092,27.87887 9.8092,63.76001 z"
       id="path3204" /><path
       d="M 2575.6505,731.20844 2473.6862,442.61048 h 82.3459 l 47.7555,164.43372 q 4.3883,14.71385 7.486,30.71839 3.3557,15.7464 4.1302,28.39514 h 1.5488 q 0.7744,-13.68129 3.872,-28.91142 3.3558,-15.48826 7.7442,-30.20211 l 47.4973,-164.43372 h 82.6041 l -101.9644,288.59796 z"
       id="path3206" /><path
       d="m 2800.1164,368.00869 q 0,-11.09992 3.3558,-18.32778 3.3558,-7.48599 9.0348,-11.87433 5.9372,-4.64648 13.6813,-6.45345 8.0023,-1.80696 16.779,-1.80696 8.7766,0 16.5208,1.80696 7.7441,1.80697 13.4231,6.45345 5.9372,4.38834 9.293,11.87433 3.6139,7.22786 3.6139,18.32778 0,10.84178 -3.6139,18.32777 -3.3558,7.486 -9.293,12.13248 -5.679,4.38834 -13.4231,6.45344 -7.7442,1.80696 -16.5208,1.80696 -8.7767,0 -16.779,-1.80696 -7.7441,-2.0651 -13.6813,-6.45344 -5.679,-4.64648 -9.0348,-12.13248 -3.3558,-7.48599 -3.3558,-18.32777 z m 82.0878,363.19975 h -78.732 V 442.61048 h 78.732 z"
       id="path3208" /><path
       d="m 3216.1205,731.20844 h -78.732 V 562.64452 q 0,-31.23467 -9.293,-46.72293 -9.293,-15.7464 -29.1696,-15.7464 -14.972,0 -25.0393,6.19531 -9.8093,6.1953 -15.7464,18.32777 -5.9372,12.13247 -8.5186,29.94398 -2.5813,17.8115 -2.5813,40.78575 v 135.78044 h -78.732 V 442.61048 h 60.146 l 10.5837,36.91369 h 4.3883 q 6.1953,-11.09992 14.7139,-19.10219 8.7767,-8.00226 19.1022,-13.16502 10.3255,-5.16275 21.9417,-7.48599 11.6162,-2.58138 23.4905,-2.58138 29.6858,0 50.3369,10.32551 20.9091,10.06737 32.009,32.00907 h 6.4535 q 6.1953,-11.09992 14.972,-19.10219 8.7766,-8.00226 19.3603,-13.16502 10.5836,-5.16275 22.1998,-7.48599 11.8744,-2.58138 23.7487,-2.58138 46.4648,0 69.9553,25.2975 23.7487,25.03935 23.7487,80.53896 v 188.18239 h -78.9902 V 562.64452 q 0,-31.23467 -9.2929,-46.72293 -9.293,-15.7464 -29.1696,-15.7464 -28.137,0 -40.0113,22.45798 -11.8743,22.19984 -11.8743,63.76001 z"
       id="path3210" /></g><path
     d="m 663.381,37.57 551.48,318.4 a 47.66,47.66 0 0 1 23.82,41.27 v 105.94 c 0,8.51 -2.27,16.7 -6.38,23.83 0,0 -437.8,-252.76 -545.3,-314.83 a 47.245,47.245 0 0 1 -23.62,-40.92 z"
     style="fill:#706bc8"
     id="path7" /><path
     d="m 1215.061,766.69 a 47.228,47.228 0 0 1 23.62,40.91 V 941.29 L 687.211,622.9 a 47.66,47.66 0 0 1 -23.83,-41.27 V 475.69 c 0,-8.52 2.27,-16.71 6.38,-23.83 0,0 437.8,252.76 545.3,314.83"
     style="fill:#55c5e4"
     id="path9" /><path
     d="m 716.443,578.506 a 35.033,35.033 0 0 0 -12.898,12.9 c -9.647,16.7 -4.036,38.3 12.495,48.13 h -0.006 l -28.825,-16.64 a 47.644,47.644 0 0 1 -23.829,-41.27 v -105.94 c 0,-17.03 9.083,-32.76 23.829,-41.27 l 498.417,-287.73 0.24,-0.14 a 34.962,34.962 0 0 0 12.65,-12.756 c 9.65,-16.708 4.04,-38.3 -12.49,-48.137 h 0.01 l 28.82,16.642 a 47.648,47.648 0 0 1 23.83,41.273 v 105.938 c 0,17.03 -9.08,32.76 -23.83,41.27 l -29.63,17.11 0.4,-0.26 z"
     style="fill:#84ddea"
     id="path11" /><path
     d="m 716.443,832.186 a 35.08,35.08 0 0 0 -12.898,12.89 c -9.647,16.71 -4.036,38.3 12.495,48.14 h -0.006 l -28.825,-16.64 a 47.656,47.656 0 0 1 -23.829,-41.27 v -105.94 c 0,-17.03 9.083,-32.76 23.829,-41.27 l 498.417,-287.73 0.24,-0.14 c 5.09,-2.99 9.5,-7.29 12.65,-12.76 9.65,-16.71 4.04,-38.3 -12.49,-48.14 h 0.01 l 28.82,16.65 a 47.636,47.636 0 0 1 23.83,41.27 v 105.94 c 0,17.02 -9.08,32.76 -23.83,41.27 l -29.63,17.1 0.4,-0.25 z"
     style="fill:#997bc8"
     id="path13" /></svg>
